<svg width="1371" height="911" viewBox="0 0 1371 911" fill="none" xmlns="http://www.w3.org/2000/svg">
	<g opacity="0.15">
		<path fill-rule="evenodd" clip-rule="evenodd" d="M417.072 248.906C414.195 249.47 412.09 251.973 412.003 254.904V254.904C412.001 254.968 412 254.94 412 255.004V255.004C412.027 258.432 415.412 261.332 418.776 260.672L432.204 258.041C434.99 257.495 437 255.053 437 252.214V252.214C437 248.477 433.588 245.669 429.921 246.388L417.072 248.906ZM450 183.895C450 181.369 447.681 179.48 445.207 179.992L415.178 186.203C413.327 186.586 412 188.216 412 190.106V190.106C412 192.632 414.319 194.52 416.793 194.009L446.822 187.798C448.673 187.415 450 185.785 450 183.895V183.895ZM1318.45 229.015C1317.61 229.186 1317 229.927 1317 230.788V230.788C1317 231.931 1318.05 232.787 1319.17 232.56L1351.55 225.985C1352.39 225.814 1353 225.073 1353 224.213V224.213C1353 223.069 1351.95 222.213 1350.83 222.441L1318.45 229.015ZM32.4492 249.014C31.606 249.185 31 249.927 31 250.787V250.787C31 251.931 32.0481 252.787 33.169 252.56L65.5512 245.985C66.3942 245.814 67 245.073 67 244.213V244.213C67 243.069 65.9522 242.213 64.8316 242.44L32.4492 249.014Z" fill="white" />
		<path fill-rule="evenodd" clip-rule="evenodd" d="M1224 157.468C1224 152.057 1219.04 148.001 1213.74 149.073L1168.87 158.137C1164.87 158.944 1162 162.456 1162 166.532V166.532C1162 171.944 1166.96 175.999 1172.26 174.928L1217.13 165.864C1221.13 165.057 1224 161.545 1224 157.468V157.468Z" fill="#66fcf1" />
		<path fill-rule="evenodd" clip-rule="evenodd" d="M677 126.283C677 124.069 674.972 122.41 672.802 122.849L655.81 126.282C654.175 126.613 653 128.049 653 129.717V129.717C653 131.931 655.028 133.59 657.198 133.152L674.19 129.718C675.825 129.388 677 127.951 677 126.283V126.283ZM674 847.283C674 845.069 671.972 843.41 669.802 843.849L652.81 847.282C651.175 847.613 650 849.049 650 850.717V850.717C650 852.931 652.028 854.59 654.198 854.152L671.19 850.718C672.825 850.388 674 848.951 674 847.283V847.283ZM1284.69 12.249C1284.69 6.25337 1279.19 1.76559 1273.31 2.96771L1181.1 21.84C1176.69 22.7423 1173.52 26.6213 1173.52 31.1213V31.1213C1173.52 37.1169 1179.02 41.6047 1184.9 40.4026L1277.11 21.5302C1281.52 20.628 1284.69 16.749 1284.69 12.249V12.249ZM1096 702.954C1096 698.848 1092.23 695.777 1088.21 696.607L1010.17 712.701C1007.16 713.322 1005 715.973 1005 719.047V719.047C1005 723.152 1008.77 726.223 1012.79 725.394L1090.83 709.301C1093.84 708.68 1096 706.028 1096 702.954V702.954ZM907 43.5295C907 41.2081 904.846 39.4863 902.582 39.9975L840.824 53.9387C839.173 54.3114 838 55.7782 838 57.4708V57.4708C838 59.7922 840.154 61.514 842.418 61.0028L904.176 47.0615C905.827 46.6888 907 45.2221 907 43.5295V43.5295Z" fill="white" />
		<path fill-rule="evenodd" clip-rule="evenodd" d="M199.145 264.091C192.064 265.593 187 271.844 187 279.083V279.083C187 288.827 195.974 296.097 205.506 294.075L229.855 288.91C236.936 287.408 242 281.156 242 273.918V273.918C242 264.174 233.026 256.904 223.494 258.926L199.145 264.091Z" fill="#66fcf1" />
		<path fill-rule="evenodd" clip-rule="evenodd" d="M467.707 840.642C468.185 835.586 463.627 831.507 458.658 832.56L287.985 868.721C284.504 869.459 282.014 872.532 282.014 876.09V876.09C282.014 880.879 286.423 884.452 291.108 883.46L461.778 847.301C464.998 846.619 467.397 843.919 467.707 840.642V840.642ZM1058.93 173.714C1058.9 167.674 1053.35 163.158 1047.44 164.392L896.617 195.856C892.179 196.782 889 200.693 889 205.226V205.226C889 211.298 894.582 215.836 900.526 214.596L1051.34 183.134C1055.79 182.206 1058.96 178.262 1058.93 173.714V173.714Z" fill="white" />
		<path fill-rule="evenodd" clip-rule="evenodd" d="M1176 78.7919C1176 76.8304 1174.21 75.3595 1172.28 75.7446L955.497 119.162C954.045 119.453 953 120.728 953 122.209V122.209C953 124.17 954.794 125.641 956.717 125.255L1173.5 81.8392C1174.95 81.5483 1176 80.273 1176 78.7919V78.7919ZM409 719.602C409 717.22 406.823 715.432 404.486 715.895L239.044 748.692C237.275 749.042 236 750.595 236 752.398V752.398C236 754.78 238.177 756.568 240.514 756.105L405.956 723.308C407.725 722.958 409 721.405 409 719.602V719.602Z" fill="#66fcf1" />
		<path fill-rule="evenodd" clip-rule="evenodd" d="M685.961 880.86C685.961 876.909 682.409 873.905 678.513 874.562L548.404 896.482C545.33 897 543.078 899.662 543.078 902.78V902.78C543.078 906.732 546.63 909.736 550.527 909.079L680.635 887.158C683.71 886.64 685.961 883.978 685.961 880.86V880.86Z" fill="white" />
		<path fill-rule="evenodd" clip-rule="evenodd" d="M1209.4 745.699C1209.7 743.403 1207.63 741.509 1205.37 741.995L1095.65 765.558C1094.11 765.891 1093 767.259 1093 768.842V768.842C1093 770.982 1094.97 772.576 1097.06 772.127L1206.78 748.565C1208.17 748.265 1209.23 747.115 1209.4 745.699V745.699ZM411.899 44.9956C411.951 42.4401 409.611 40.5009 407.11 41.0256L263.259 71.1941C261.448 71.5739 260.138 73.1536 260.101 75.0038V75.0038C260.049 77.5596 262.389 79.499 264.891 78.9743L408.741 48.8048C410.552 48.425 411.862 46.8456 411.899 44.9956V44.9956Z" fill="#66fcf1" />
		<path fill-rule="evenodd" clip-rule="evenodd" d="M1114 484.475C1114 482.165 1111.88 480.438 1109.62 480.904L963.91 510.954C962.216 511.304 961 512.795 961 514.525V514.525C961 516.835 963.12 518.563 965.383 518.096L1111.09 488.046C1112.78 487.697 1114 486.205 1114 484.475V484.475ZM1169 259.23C1169 255.494 1165.58 252.695 1161.91 253.439L1060.73 273.978C1057.98 274.537 1056 276.959 1056 279.77V279.77C1056 283.506 1059.42 286.305 1063.09 285.562L1164.27 265.022C1167.02 264.463 1169 262.041 1169 259.23V259.23ZM640 252.12C640 247.397 635.686 243.851 631.053 244.764L617.047 247.526C613.533 248.219 611 251.3 611 254.881V254.881C611 259.604 615.314 263.15 619.947 262.236L633.953 259.475C637.467 258.783 640 255.701 640 252.12V252.12ZM1077 824.23C1077 819.463 1072.63 815.895 1067.96 816.85L948.022 841.391C944.517 842.108 942 845.192 942 848.77V848.77C942 853.537 946.372 857.106 951.042 856.15L1070.98 831.61C1074.48 830.892 1077 827.808 1077 824.23V824.23ZM1022 369.516C1022 368.227 1020.8 367.271 1019.55 367.555L997.567 372.524C996.651 372.731 996 373.545 996 374.485V374.485C996 375.774 997.196 376.73 998.454 376.446L1020.43 371.478C1021.35 371.27 1022 370.456 1022 369.516V369.516ZM1121 627.142C1121 622.42 1116.67 618.885 1112.04 619.831L1088.97 624.548C1085.49 625.258 1083 628.314 1083 631.859V631.859C1083 636.581 1087.33 640.115 1091.96 639.169L1115.03 634.452C1118.51 633.742 1121 630.687 1121 627.142V627.142ZM38 414.142C38 409.42 33.6698 405.885 29.0439 406.831L5.96726 411.548C2.49415 412.258 0 415.314 0 418.859V418.859C0 423.581 4.33017 427.115 8.95611 426.169L32.0327 421.452C35.5058 420.742 38 417.687 38 414.142V414.142ZM306 598.953C306 594.848 302.232 591.777 298.211 592.607L220.171 608.701C217.16 609.322 215 611.973 215 615.047V615.047C215 619.152 218.768 622.223 222.789 621.394L300.829 605.3C303.84 604.679 306 602.028 306 598.953V598.953Z" fill="white" />
		<path fill-rule="evenodd" clip-rule="evenodd" d="M60.3257 569.484C53.1368 571.022 48 577.374 48 584.726V584.726C48 594.647 57.1462 602.043 66.8478 599.967L101.674 592.516C108.863 590.978 114 584.626 114 577.274V577.274C114 567.353 104.854 559.957 95.1522 562.033L60.3257 569.484Z" fill="#66fcf1" />
		<path fill-rule="evenodd" clip-rule="evenodd" d="M1263.33 414.484C1256.14 416.022 1251 422.374 1251 429.726V429.726C1251 439.647 1260.15 447.043 1269.85 444.967L1304.67 437.516C1311.86 435.978 1317 429.626 1317 422.274V422.274C1317 412.353 1307.85 404.957 1298.15 407.033L1263.33 414.484ZM350 393.475C350 391.165 347.88 389.437 345.617 389.904L199.91 419.954C198.216 420.303 197 421.795 197 423.525V423.525C197 425.835 199.12 427.563 201.383 427.096L347.09 397.046C348.784 396.697 350 395.205 350 393.475V393.475Z" fill="white" />
		<path fill-rule="evenodd" clip-rule="evenodd" d="M1371 586.707C1371 581.177 1365.93 577.039 1360.51 578.148L1259.98 598.734C1255.92 599.566 1253 603.143 1253 607.293V607.293C1253 612.823 1258.07 616.961 1263.49 615.852L1364.02 595.266C1368.08 594.434 1371 590.857 1371 586.707V586.707Z" fill="#66fcf1" />
		<path fill-rule="evenodd" clip-rule="evenodd" d="M394 502.141C394 497.42 389.67 493.885 385.044 494.831L361.967 499.548C358.494 500.258 356 503.314 356 506.859V506.859C356 511.58 360.33 515.115 364.956 514.169L388.033 509.452C391.506 508.742 394 505.686 394 502.141V502.141ZM1136 703.087C1136 702.004 1135.01 701.189 1133.95 701.392L1124.4 703.217C1123.59 703.372 1123 704.084 1123 704.913V704.913C1123 705.996 1123.99 706.811 1125.05 706.608L1134.6 704.783C1135.41 704.628 1136 703.916 1136 703.087V703.087Z" fill="white" />
	</g>
</svg>
