<svg xmlns="http://www.w3.org/2000/svg" xmlns:xlink="http://www.w3.org/1999/xlink" viewBox="0,0,256,256" width="100px" height="100px" fill-rule="nonzero"><g fill="#000000" fill-rule="nonzero" stroke="none" stroke-width="1" stroke-linecap="butt" stroke-linejoin="miter" stroke-miterlimit="10" stroke-dasharray="" stroke-dashoffset="0" font-family="none" font-weight="none" font-size="none" text-anchor="none" style="mix-blend-mode: normal"><g transform="scale(2.56,2.56)"><path d="M31.01172,17.98828c-7.18,0 -13,5.82 -13,13v39c0,7.18 5.82,13 13,13h39c7.179,0 13,-5.82 13,-13v-39c0,-7.18 -5.82,-13 -13,-13zM31.01172,19.98828h39c6.075,0 11,4.925 11,11v39c0,6.075 -4.925,11 -11,11h-39c-6.075,0 -11,-4.925 -11,-11v-39c0,-6.075 4.924,-11 11,-11zM33.84766,22.98828c-5.985,0 -10.83594,4.85094 -10.83594,10.83594v33.32617c0,5.985 4.85094,10.83789 10.83594,10.83789h33.32617c5.985,0 10.83789,-4.85189 10.83789,-10.83789v-18.66211c0,-0.276 -0.224,-0.5 -0.5,-0.5c-0.276,0 -0.5,0.224 -0.5,0.5v18.66211c0,5.433 -4.40489,9.83789 -9.83789,9.83789h-33.32422c-5.433,0 -9.83789,-4.40489 -9.83789,-9.83789v-33.32617c0,-5.433 4.40294,-9.83594 9.83594,-9.83594h33.66406c0.276,0 0.5,-0.224 0.5,-0.5c0,-0.276 -0.224,-0.5 -0.5,-0.5zM33.59961,36c-1.01395,0 -1.94348,0.34135 -2.70508,0.90039c-0.1068,0.03916 -0.19705,0.11357 -0.25586,0.21094c-0.99319,0.84469 -1.63867,2.08692 -1.63867,3.48828v20.80078c0,1.40082 0.64419,2.6436 1.63672,3.48828c0.06098,0.10787 0.1598,0.1893 0.27734,0.22852c0.75778,0.54964 1.681,0.88281 2.68555,0.88281h33.80078c1.27157,0 2.42399,-0.52105 3.25781,-1.35937c0.13488,-0.06345 0.23442,-0.18375 0.27148,-0.32812c0.6583,-0.79595 1.07031,-1.80215 1.07031,-2.91211v-20.80078c0,-1.11094 -0.41291,-2.11781 -1.07227,-2.91406c-0.03904,-0.12788 -0.12767,-0.2348 -0.24609,-0.29687c-0.83579,-0.85397 -1.99624,-1.38867 -3.28125,-1.38867zM77.51172,36.56641c-0.276,0 -0.5,0.224 -0.5,0.5v2c0,0.276 0.224,0.5 0.5,0.5c0.276,0 0.5,-0.223 0.5,-0.5v-2c0,-0.276 -0.224,-0.5 -0.5,-0.5zM33.59961,37h33.80078c0.89965,0 1.71007,0.33887 2.33984,0.88086l-11.36914,12.91797c-0.04508,0.0367 -0.08341,0.08099 -0.11328,0.13086l-2.375,2.69727c-2.83393,3.22021 -7.8483,3.16171 -10.60742,-0.12305l-2.14844,-2.55859c-0.0287,-0.04956 -0.06569,-0.09382 -0.10937,-0.13086c-0.0013,-0.00066 -0.0026,-0.00131 -0.00391,-0.00195l-11.19336,-13.32812c0.52601,-0.3002 1.12805,-0.48437 1.7793,-0.48437zM31.02148,38.08984l11.01172,13.10938l-11,12.72266c-0.63738,-0.64882 -1.0332,-1.53614 -1.0332,-2.52148v-20.80078c0,-0.97938 0.39092,-1.86197 1.02148,-2.50977zM70.41211,38.62891c0.37,0.56582 0.58789,1.2415 0.58789,1.9707v20.80078c0,0.73892 -0.22245,1.4238 -0.60156,1.99414l-11.03906,-12.20508zM77.51172,40.56641c-0.276,0 -0.5,0.224 -0.5,0.5v4c0,0.276 0.224,0.5 0.5,0.5c0.276,0 0.5,-0.223 0.5,-0.5v-4c0,-0.276 -0.224,-0.5 -0.5,-0.5zM58.69336,51.94531l11.02734,12.18945c-0.62723,0.53226 -1.42971,0.86523 -2.32031,0.86523h-33.80078c-0.64499,0 -1.24112,-0.1817 -1.76367,-0.47656l10.84766,-12.54883l1.82617,2.17383c3.14088,3.73924 8.89698,3.80446 12.12305,0.13867z"></path></g></g></svg>