<svg xmlns="http://www.w3.org/2000/svg" xmlns:xlink="http://www.w3.org/1999/xlink" viewBox="0,0,256,256" width="100px" height="100px" fill-rule="nonzero"><g fill="none" fill-rule="nonzero" stroke="none" stroke-width="1" stroke-linecap="butt" stroke-linejoin="miter" stroke-miterlimit="10" stroke-dasharray="" stroke-dashoffset="0" font-family="none" font-weight="none" font-size="none" text-anchor="none" style="mix-blend-mode: normal"><g transform="scale(2.56,2.56)"><circle cx="50" cy="50" r="35" fill="#c5c6c7"></circle><path d="M48.537,60.436l-5.279,4.876c0,0 -0.228,0.178 -0.54,0.186c-0.106,0.008 -0.221,-0.008 -0.335,-0.062l1.483,-8.947z" fill="#b3b2c3"></path><path d="M59.643,66.128c0,0 -0.243,1.372 -1.917,1.372c-0.89,0 -1.346,-0.426 -1.346,-0.426l-12.506,-10.584l-6.124,-3.14l-7.858,-2.132c0,0 -1.392,-0.411 -1.392,-1.59c0,-0.985 1.438,-1.45 1.438,-1.45l32.862,-13.306c0,0 0.845,-0.372 1.575,-0.372c0.625,0 1.125,0.375 1.125,1c0,0.121 -0.012,0.252 -0.029,0.375c-0.037,0.27 -5.828,30.253 -5.828,30.253z" fill="#ffffff"></path><path d="M59.34,40.81c-0.15,-0.203 -0.375,-0.309 -0.605,-0.31c-0.165,-0.001 -0.332,0.052 -0.475,0.163l-20.51,12.694c0,0 3.913,10.95 3.992,11.143c0.372,0.91 0.641,0.936 0.641,0.936l1.483,-8.947l15.33,-14.578c0.201,-0.154 0.305,-0.389 0.304,-0.625c0,-0.167 -0.053,-0.335 -0.16,-0.476z" fill="#d7d6eb"></path><path d="M50,86c-19.851,0 -36,-16.149 -36,-36c0,-19.851 16.149,-36 36,-36c19.851,0 36,16.149 36,36c0,19.851 -16.149,36 -36,36zM50,16c-18.748,0 -34,15.252 -34,34c0,18.748 15.252,34 34,34c18.748,0 34,-15.252 34,-34c0,-18.748 -15.252,-34 -34,-34z" fill="#1f2833"></path><path d="M65.5,24.227c-0.087,0 -0.175,-0.022 -0.255,-0.07c-0.638,-0.377 -1.299,-0.735 -1.967,-1.065c-0.247,-0.123 -0.349,-0.422 -0.227,-0.67c0.123,-0.249 0.425,-0.347 0.67,-0.227c0.689,0.341 1.374,0.711 2.033,1.102c0.237,0.141 0.316,0.447 0.176,0.685c-0.093,0.157 -0.259,0.245 -0.43,0.245z" fill="#1f2833"></path><path d="M68.5,26.25c-0.106,0 -0.213,-0.034 -0.304,-0.103c-0.322,-0.247 -0.65,-0.486 -0.983,-0.72c-0.226,-0.159 -0.281,-0.47 -0.122,-0.696c0.158,-0.228 0.47,-0.28 0.696,-0.123c0.345,0.241 0.683,0.49 1.017,0.745c0.22,0.167 0.261,0.481 0.094,0.701c-0.099,0.128 -0.248,0.196 -0.398,0.196z" fill="#1f2833"></path><path d="M50,81c-17.094,0 -31,-13.907 -31,-31c0,-17.093 13.906,-31 31,-31c3.668,0 7.259,0.635 10.672,1.886c0.26,0.095 0.393,0.382 0.298,0.642c-0.095,0.26 -0.383,0.393 -0.642,0.297c-3.303,-1.211 -6.777,-1.825 -10.328,-1.825c-16.542,0 -30,13.458 -30,30c0,16.542 13.458,30 30,30c16.542,0 30,-13.458 30,-30c0,-8.439 -3.585,-16.535 -9.836,-22.213c-0.205,-0.186 -0.22,-0.502 -0.034,-0.707c0.187,-0.204 0.503,-0.219 0.706,-0.034c6.46,5.868 10.164,14.234 10.164,22.954c0,17.093 -13.906,31 -31,31z" fill="#1f2833"></path><path d="M57.726,68c-1.056,0 -1.626,-0.503 -1.688,-0.561l-12.443,-10.53l-6.026,-3.091l-7.808,-2.119c-0.082,-0.024 -1.761,-0.537 -1.761,-2.072c0,-1.333 1.711,-1.902 1.783,-1.926l32.829,-13.293c0.025,-0.011 0.937,-0.408 1.763,-0.408c0.941,0 1.625,0.631 1.625,1.5c0,0.143 -0.015,0.298 -0.034,0.442c-0.038,0.276 -5.235,27.19 -5.832,30.277c-0.112,0.618 -0.756,1.781 -2.408,1.781zM64.375,35c-0.613,0 -1.367,0.326 -1.374,0.33l-32.876,13.311c-0.315,0.105 -1.125,0.485 -1.125,0.986c0,0.785 1.025,1.107 1.035,1.11l7.846,2.129c0.034,0.009 0.066,0.021 0.098,0.038l6.124,3.141c0.033,0.017 0.065,0.039 0.095,0.063l12.505,10.584c0.025,0.022 0.361,0.308 1.023,0.308c1.24,0 1.418,-0.92 1.425,-0.96c0,-0.002 0.001,-0.005 0.001,-0.007c1.985,-10.279 5.758,-29.827 5.825,-30.234c0.012,-0.092 0.023,-0.199 0.023,-0.299c0,-0.476 -0.521,-0.5 -0.625,-0.5z" fill="#1f2833"></path><path d="M42.655,66c-0.159,0 -0.328,-0.038 -0.486,-0.113c-0.202,-0.096 -0.315,-0.313 -0.279,-0.534l1.483,-8.946c0.029,-0.177 0.151,-0.325 0.32,-0.387c0.17,-0.063 0.358,-0.029 0.495,0.087l4.67,3.946c0.11,0.092 0.175,0.228 0.178,0.371c0.003,0.144 -0.056,0.281 -0.161,0.378l-5.278,4.876c-0.091,0.074 -0.413,0.307 -0.866,0.319c-0.025,0.003 -0.05,0.003 -0.076,0.003zM44.216,57.439l-1.236,7.452l4.802,-4.439z" fill="#1f2833"></path><path d="M42.383,65.936c-0.016,0 -0.032,-0.001 -0.049,-0.002c-0.378,-0.037 -0.732,-0.456 -1.055,-1.245c-0.079,-0.194 -3.346,-9.333 -4,-11.164c-0.079,-0.222 0.007,-0.47 0.208,-0.594l20.51,-12.694c0.187,-0.147 0.438,-0.243 0.741,-0.237c0.396,0.001 0.761,0.188 1.002,0.509c0.168,0.222 0.26,0.498 0.26,0.777c0,0.405 -0.182,0.777 -0.498,1.021l-15.17,14.43l-1.456,8.781c-0.04,0.243 -0.251,0.418 -0.493,0.418zM38.356,53.569c1.226,3.428 3.272,9.151 3.751,10.473l1.266,-7.635c0.018,-0.107 0.07,-0.206 0.148,-0.28l15.33,-14.579c0.109,-0.086 0.149,-0.17 0.149,-0.262c0,-0.044 -0.01,-0.111 -0.059,-0.175c0,-0.001 -0.001,-0.002 -0.002,-0.002c-0.052,-0.07 -0.115,-0.083 -0.208,-0.109c-0.06,0 -0.117,0.021 -0.167,0.059z" fill="#1f2833"></path></g></g></svg>